<svg width="22" height="20" viewBox="0 0 22 20" fill="none" xmlns="http://www.w3.org/2000/svg">
    <path d="M0.233104 13.3625L6.5189 19.7624C6.67443 19.9208 6.85851 20 7.07132 20C7.28413 20 7.46834 19.9208 7.62374 19.7624C7.77927 19.604 7.85715 19.4165 7.85715 19.1998V15.9999H10.6071C16.4429 15.9999 20.0235 14.3207 21.3495 10.9623C21.7832 9.8458 22 8.45813 22 6.79981C22 5.41656 21.4803 3.53744 20.4409 1.16236C20.4164 1.10392 20.3735 1.00414 20.312 0.862502C20.2506 0.720955 20.1954 0.595958 20.1463 0.48751C20.097 0.379325 20.0438 0.287646 19.9866 0.212735C19.8884 0.0710133 19.7738 0 19.6428 0C19.5201 0 19.4239 0.0416353 19.3542 0.124952C19.2848 0.208225 19.25 0.312515 19.25 0.437205C19.25 0.512422 19.2603 0.622665 19.2808 0.76859C19.3012 0.914515 19.3115 1.01219 19.3115 1.06228C19.3525 1.62873 19.373 2.14163 19.373 2.59964C19.373 3.44125 19.3012 4.19544 19.1581 4.86206C19.0148 5.52882 18.8164 6.10578 18.5626 6.59333C18.3088 7.08106 17.9816 7.50159 17.5804 7.85578C17.1794 8.20998 16.7478 8.49946 16.2853 8.7245C15.8228 8.94958 15.2786 9.12668 14.6524 9.2558C14.0264 9.38495 13.3962 9.47457 12.7618 9.52462C12.1274 9.57466 11.4093 9.59953 10.6071 9.59953H7.85715V6.39947C7.85715 6.18283 7.77944 5.99527 7.62404 5.837C7.46838 5.67882 7.2843 5.59953 7.07162 5.59953C6.85886 5.59953 6.67464 5.67882 6.5189 5.837L0.233233 12.2372C0.0777016 12.3955 0 12.583 0 12.7996C4.30001e-05 13.0163 0.077702 13.2038 0.233104 13.3625Z" fill="white"/>
</svg>
