<svg width="106" height="26" viewBox="0 0 106 26" fill="none" xmlns="http://www.w3.org/2000/svg">
    <path d="M17.6351 17.4202L20.428 19.5761C18.398 22.6727 15.0299 24.7047 11.2226 24.7047C5.0346 24.7047 0 19.3417 0 12.7503C0 6.15929 5.0346 0.796875 11.2226 0.796875C15.0294 0.796875 18.398 2.82833 20.428 5.92497L17.6351 8.08132C16.2823 5.77908 13.945 4.25524 11.2226 4.25524C6.91439 4.25524 3.58474 8.06983 3.58474 12.7503C3.58474 17.4312 6.91439 21.2458 11.2226 21.2458C13.945 21.2458 16.2823 19.722 17.6351 17.4202Z"
          fill="black"/>
    <path d="M34.7295 8.55859V24.3011H31.3605V23.3298C30.3997 24.1757 28.7996 24.7058 27.595 24.7058C24.2437 24.7058 22.0615 22.0014 22.0615 18.6559V8.55859H25.4005V18.6559C25.4005 20.2322 26.8322 21.5147 28.2938 21.5147C30.1047 21.5147 31.2881 20.2952 31.3605 18.7733V8.55859H34.7295Z"
          fill="black"/>
    <path d="M43.1388 11.729V21.0554H47.5494V24.2645H43.1388C41.2807 24.2645 39.7737 22.7361 39.7737 20.8506V11.729H36.708V8.51996H39.7737V4.0069L43.1388 3.29395V8.51996H47.5494V11.729H43.1388Z"
          fill="black"/>
    <path d="M69.9918 8.52344L65.8013 24.2659H61.99L59.9654 16.6582L59.4158 13.5776L58.8662 16.6577L56.8411 24.2659H53.0303L48.8398 8.52344H52.2049L54.6777 18.3629L54.9357 20.0457L55.1938 18.3634L57.6665 8.52344H61.1641L63.6368 18.3629L63.8949 20.0457L64.1529 18.3634L66.6262 8.52344H69.9918Z"
          fill="black"/>
    <path d="M73.4495 7.3514L70.7852 3.6757L73.4495 0L76.1133 3.6757L73.4495 7.3514Z" fill="#FF4848"/>
    <path d="M75.141 8.52344H71.772V24.2659H75.141V8.52344Z" fill="black"/>
    <path d="M89.1671 19.6941C89.1671 22.5625 86.3738 24.7068 83.1151 24.7068C80.632 24.7068 78.3237 23.3264 77.0034 21.4673L79.5352 19.6117C80.5158 21.1031 81.9375 21.4978 83.1156 21.4978C84.1241 21.4978 85.5454 21.248 85.8015 20.0214C85.8872 19.6112 86.0305 18.0534 83.1156 17.7466C80.8531 17.5088 76.6784 16.0814 77.5781 11.8956C77.9253 10.2803 79.9204 8.14844 83.1151 8.14844C85.2184 8.14844 87.408 9.2536 88.6219 10.9153L86.0906 12.7709C85.5774 11.8756 84.1832 11.353 83.1151 11.353C81.8898 11.353 80.9777 11.8221 80.827 12.596C80.5886 13.8211 81.7932 14.3787 83.1151 14.5705C88.0236 15.2835 89.1671 18.0014 89.1671 19.6941Z"
          fill="black"/>
    <path d="M102.688 19.8574L105.046 22.0052C103.48 23.7909 101.259 24.6962 98.4424 24.6962C94.0825 24.6962 90.5361 20.981 90.5361 16.4145C90.5361 11.848 94.0825 8.13281 98.4424 8.13281C102.802 8.13281 105.996 11.847 105.997 16.4125L105.999 17.7405H94.2144C94.6463 20.0502 96.2262 21.4816 98.4424 21.4816C100.32 21.4821 101.747 20.9296 102.688 19.8574ZM94.3257 14.5919H102.272C101.831 12.4475 100.53 11.3474 98.4429 11.3474C96.3863 11.3474 94.8783 12.5634 94.3257 14.5919Z"
          fill="black"/>
</svg>
