<svg width="971" height="469" viewBox="0 0 971 469" fill="none" xmlns="http://www.w3.org/2000/svg">
    <path d="M870.523 233.809C870.54 362.386 766.291 466.618 637.675 466.618C509.06 466.618 404.783 362.386 404.767 233.809C404.75 105.233 508.999 0.999995 637.615 0.999995C766.23 0.999995 870.507 105.233 870.523 233.809Z" stroke="#42CD7A" stroke-width="2"/>
    <path d="M248.278 278.88C282.172 227.083 331.972 194.396 380.37 186.636C392.65 234.073 382.645 292.784 348.752 344.581C314.858 396.379 265.057 429.066 216.66 436.825C204.38 389.388 214.385 330.678 248.278 278.88Z" stroke="#2F5AF3" stroke-width="2"/>
    <path d="M809.984 262.966L921.405 311.685L907.888 432.541L796.462 383.821L809.984 262.966Z" fill="#FF4848"/>
    <path d="M74.4613 301.001C103.459 294.939 122.051 266.526 115.988 237.538C109.924 208.55 81.5021 189.964 52.5046 196.025C23.5071 202.086 4.91518 230.5 10.9784 259.488C17.0415 288.476 45.4638 307.062 74.4613 301.001Z" fill="#42CD7A"/>
    <path d="M500.958 186.882C518.051 186.882 531.906 173.029 531.904 155.941C531.902 138.853 518.043 125 500.95 125C483.857 125 470.002 138.853 470.004 155.941C470.006 173.029 483.865 186.882 500.958 186.882Z" fill="#F1B072"/>
</svg>
