<svg width="1030" height="570" viewBox="0 0 1030 570" fill="none" xmlns="http://www.w3.org/2000/svg">
<path d="M843.577 126.293C843.586 195.49 787.481 251.586 718.263 251.586C649.045 251.586 592.926 195.49 592.917 126.293C592.908 57.0958 649.012 0.999997 718.231 0.999997C787.449 0.999997 843.568 57.0958 843.577 126.293Z" stroke="#42CD7A" stroke-opacity="0.3" stroke-width="2"/>
<path d="M440.705 96.5109C459.438 125.842 465.672 167.68 454.283 210.168C442.894 252.657 416.569 285.778 385.673 301.823C366.94 272.491 360.706 230.654 372.094 188.165C383.483 145.677 409.808 112.557 440.705 96.5109Z" stroke="#2F5AF3" stroke-opacity="0.3" stroke-width="2"/>
<path d="M973.97 394.291C953.561 388.821 937.644 376.251 929.814 361.508C943.961 352.656 964.025 349.731 984.434 355.201C1004.84 360.671 1020.76 373.242 1028.59 387.984C1014.44 396.836 994.379 399.762 973.97 394.291Z" stroke="#2F5AF3" stroke-opacity="0.3" stroke-width="2"/>
<path d="M280.547 97.2451L270.421 30.4189L337.246 40.5462L347.374 107.372L280.547 97.2451Z" stroke="#FF4848" stroke-opacity="0.3" stroke-width="2"/>
<path d="M718.543 536.83L740.253 537.623L733.063 558.123L711.353 557.331L718.543 536.83Z" stroke="#FF4848" stroke-opacity="0.3" stroke-width="2"/>
<path d="M30.6756 342.83L14.141 356.921L5.58112 336.954L22.1151 322.862L30.6756 342.83Z" stroke="#FF4848" stroke-opacity="0.3" stroke-width="2"/>
<path opacity="0.5" d="M290.753 433.43C292.12 439.968 287.927 446.377 281.387 447.744C274.846 449.111 268.435 444.919 267.068 438.381C265.7 431.843 269.894 425.434 276.434 424.067C282.975 422.7 289.385 426.892 290.753 433.43Z" stroke="#42CD7A" stroke-opacity="0.3"/>
<path d="M909.498 203.421C909.499 211.851 902.664 218.685 894.231 218.685C885.798 218.685 878.961 211.851 878.96 203.421C878.959 194.991 885.794 188.156 894.227 188.156C902.66 188.156 909.497 194.991 909.498 203.421Z" stroke="#F1B072" stroke-opacity="0.3"/>
<path d="M170.591 95.4653C170.593 112.053 157.144 125.5 140.552 125.5C123.959 125.5 110.506 112.053 110.504 95.4653C110.502 78.8778 123.951 65.4307 140.544 65.4307C157.137 65.4307 170.589 78.8778 170.591 95.4653Z" stroke="#F1B072" stroke-opacity="0.3"/>
</svg>
