<svg width="920" height="426" viewBox="0 0 920 426" fill="none" xmlns="http://www.w3.org/2000/svg">
<path d="M733.577 126.293C733.586 195.49 677.481 251.586 608.263 251.586C539.045 251.586 482.926 195.49 482.917 126.293C482.908 57.0958 539.012 0.999997 608.231 0.999997C677.449 0.999997 733.568 57.0958 733.577 126.293Z" stroke="#42CD7A" stroke-opacity="0.5" stroke-width="2"/>
<path d="M286.595 97.2004C305.328 126.532 311.562 168.369 300.174 210.858C288.785 253.347 262.459 286.467 231.563 302.512C212.83 273.181 206.596 231.343 217.985 188.855C229.373 146.366 255.699 113.246 286.595 97.2004Z" stroke="#2F5AF3" stroke-opacity="0.5" stroke-width="2"/>
<path d="M863.97 394.291C843.561 388.821 827.644 376.251 819.814 361.508C833.961 352.656 854.025 349.731 874.434 355.201C894.844 360.671 910.76 373.242 918.59 387.984C904.444 396.836 884.379 399.762 863.97 394.291Z" stroke="#2F5AF3" stroke-opacity="0.5" stroke-width="2"/>
<path d="M318.026 126.088L307.901 59.2616L374.725 69.389L384.854 136.214L318.026 126.088Z" stroke="#FF4848" stroke-opacity="0.5" stroke-width="2"/>
<path d="M703.66 41.7976L725.37 42.5913L718.18 63.0912L696.47 62.2984L703.66 41.7976Z" stroke="#FF4848" stroke-opacity="0.5" stroke-width="2"/>
<path opacity="0.5" d="M412.766 321.383C414.133 327.921 409.94 334.33 403.399 335.697C396.859 337.064 390.448 332.872 389.081 326.334C387.713 319.796 391.906 313.387 398.447 312.02C404.987 310.653 411.398 314.845 412.766 321.383Z" stroke="#42CD7A" stroke-opacity="0.6"/>
<path d="M812.127 209.733C812.129 221.649 802.467 231.31 790.547 231.31C778.627 231.31 768.962 221.649 768.961 209.733C768.959 197.817 778.621 188.156 790.541 188.156C802.462 188.156 812.126 197.817 812.127 209.733Z" stroke="#F1B072" stroke-opacity="0.6"/>
<path d="M43.6694 87.0074C43.671 98.9238 34.0092 108.584 22.0889 108.584C10.1687 108.584 0.504395 98.9238 0.502854 87.0074C0.501314 75.0911 10.1631 65.4307 22.0834 65.4307C34.0036 65.4307 43.6679 75.0911 43.6694 87.0074Z" stroke="#F1B072" stroke-opacity="0.6"/>
</svg>
