<svg width="1030" height="526" viewBox="0 0 1030 526" fill="none" xmlns="http://www.w3.org/2000/svg">
<path d="M843.577 142.293C843.586 211.49 787.481 267.586 718.263 267.586C649.045 267.586 592.926 211.49 592.917 142.293C592.908 73.0958 649.012 17 718.231 17C787.449 17 843.568 73.0958 843.577 142.293Z" stroke="#42CD7A" stroke-opacity="0.3" stroke-width="2"/>
<path d="M122.51 504.653C114.044 499.059 107.6 492.237 104.004 485.774C100.381 479.263 99.7756 473.386 102.408 469.403C105.041 465.42 110.685 463.673 118.097 464.453C125.453 465.227 134.255 468.481 142.721 474.075C151.187 479.669 157.631 486.491 161.227 492.954C164.85 499.465 165.455 505.342 162.823 509.325C160.19 513.308 154.546 515.055 147.134 514.275C139.778 513.501 130.975 510.248 122.51 504.653Z" stroke="#42CD7A" stroke-opacity="0.3" stroke-width="2"/>
<path d="M440.705 112.511C459.438 141.842 465.672 183.68 454.283 226.168C442.894 268.657 416.569 301.778 385.673 317.823C366.94 288.491 360.706 246.654 372.094 204.165C383.483 161.677 409.808 128.557 440.705 112.511Z" stroke="#2F5AF3" stroke-opacity="0.3" stroke-width="2"/>
<path d="M973.97 410.291C953.561 404.821 937.644 392.251 929.814 377.508C943.961 368.656 964.025 365.731 984.434 371.201C1004.84 376.671 1020.76 389.242 1028.59 403.984C1014.44 412.836 994.379 415.762 973.97 410.291Z" stroke="#2F5AF3" stroke-opacity="0.3" stroke-width="2"/>
<path d="M280.547 113.245L270.421 46.4189L337.246 56.5462L347.374 123.372L280.547 113.245Z" stroke="#FF4848" stroke-opacity="0.3" stroke-width="2"/>
<path d="M829.543 11.8298L851.253 12.6235L844.063 33.1234L822.353 32.3307L829.543 11.8298Z" stroke="#FF4848" stroke-opacity="0.3" stroke-width="2"/>
<path d="M30.6756 358.83L14.141 372.921L5.58112 352.954L22.1151 338.862L30.6756 358.83Z" stroke="#FF4848" stroke-opacity="0.3" stroke-width="2"/>
<path opacity="0.5" d="M575.753 414.43C577.12 420.968 572.927 427.377 566.387 428.744C559.846 430.111 553.435 425.919 552.068 419.381C550.7 412.843 554.894 406.434 561.434 405.067C567.975 403.7 574.385 407.892 575.753 414.43Z" stroke="#42CD7A" stroke-opacity="0.3"/>
<path d="M909.498 219.421C909.499 227.851 902.664 234.685 894.231 234.685C885.798 234.685 878.961 227.851 878.96 219.421C878.959 210.991 885.794 204.156 894.227 204.156C902.66 204.156 909.497 210.991 909.498 219.421Z" stroke="#F1B072" stroke-opacity="0.3"/>
<path d="M170.591 111.465C170.593 128.053 157.144 141.5 140.552 141.5C123.959 141.5 110.506 128.053 110.504 111.465C110.502 94.8778 123.951 81.4307 140.544 81.4307C157.137 81.4307 170.589 94.8778 170.591 111.465Z" stroke="#F1B072" stroke-opacity="0.3"/>
</svg>
